<?xml version="1.0" encoding="UTF-8"?>
<svg width="49px" height="43px" viewBox="0 0 49 43" version="1.1" xmlns="http://www.w3.org/2000/svg" xmlns:xlink="http://www.w3.org/1999/xlink">
    <!-- Generator: Sketch 63.1 (92452) - https://sketch.com -->
    <title>待发货</title>
    <desc>Created with Sketch.</desc>
    <g id="Page-1" stroke="none" stroke-width="1" fill="none" fill-rule="evenodd">
        <g id="Tab-4个人中心/1-2黄金会员" transform="translate(-264.000000, -958.000000)" fill-rule="nonzero">
            <g id="Group-10" transform="translate(0.000000, 465.000000)">
                <g id="Group-20" transform="translate(0.000000, 378.000000)">
                    <g id="Group-3">
                        <g id="待发货" transform="translate(261.000000, 108.000000)">
                            <rect id="Rectangle-path" fill="#000000" opacity="0" x="0" y="0" width="56" height="56"></rect>
                            <path d="M15.2921099,28.5392452 L11.9379238,28.5392452 C10.9827642,28.5392452 10.2073543,27.7552166 10.2073543,26.7893152 C10.2073543,25.8231899 10.9827642,25.0391613 11.9379238,25.0391613 L15.2921099,25.0391613 C16.2476017,25.0391613 17.0229562,25.82319 17.0229562,26.7893152 C17.0229562,27.7552166 16.2476017,28.5392452 15.2921099,28.5392452 L15.2921099,28.5392452 Z M47.5057477,7.53846154 L7.41921143,7.53846154 C5.10864839,7.53846154 3.23076923,9.43550191 3.23076923,11.7702347 L3.23076923,20.2265598 L3.23076923,20.6901141 L3.23076923,45.738951 C3.23076923,47.8339857 4.95790653,49.5384615 7.07986236,49.5384615 L47.8432699,49.5384615 C49.9667204,49.5384615 51.6923077,47.8339857 51.6923077,45.738951 L51.6923077,20.6901141 L51.6923077,11.7702347 C51.6907576,9.43550191 49.8128231,7.53846154 47.5057477,7.53846154 L47.5057477,7.53846154 Z M48.2293971,11.7702347 L48.2293971,18.9402401 L36.1419271,18.9402401 L36.1419271,11.0384895 L47.5057477,11.0384895 C47.9040538,11.0384895 48.2293971,11.3674725 48.2293971,11.7702347 L48.2293971,11.7702347 Z M23.9284607,11.0384895 L32.6805666,11.0384895 L32.6805666,30.751442 L28.8521777,29.2079031 C28.4351603,29.0381216 27.9679326,29.0414804 27.5541814,29.2149003 L23.9284607,30.7198704 L23.9284607,11.0384895 L23.9284607,11.0384895 Z M6.69212973,11.7702347 C6.69212973,11.3675285 7.01752841,11.0385455 7.41921143,11.0385455 L20.4668234,11.0385455 L20.4668234,18.9402401 L6.69212973,18.9402401 L6.69212973,11.7702347 L6.69212973,11.7702347 Z M47.8417198,46.0382656 L7.07986236,46.0382656 C6.85145223,46.0382656 6.69212973,45.8807994 6.69212973,45.7388949 L6.69212973,22.440324 L20.4668233,22.440324 L20.4668233,33.3328701 C20.4668233,33.9154898 20.7541352,34.4616117 21.2337633,34.78718 C21.5226252,34.981256 21.8583206,35.0828002 22.1976697,35.0828002 C22.4192154,35.0828002 22.6441933,35.0408166 22.8552208,34.9515876 L28.2222506,32.723605 L33.7709124,34.9585848 C34.303851,35.1753878 34.9080916,35.1072625 35.3839553,34.7818061 C35.8579922,34.4544464 36.1418718,33.9135865 36.1418718,33.3328141 L36.1418718,22.440324 L48.2293971,22.440324 L48.2293971,45.738895 C48.2293971,45.8808553 48.07013,46.0382656 47.8417198,46.0382656 L47.8417198,46.0382656 Z" id="Shape" fill="#D51001"></path>
                        </g>
                    </g>
                </g>
            </g>
        </g>
    </g>
</svg>