<?xml version="1.0" encoding="UTF-8"?>
<svg width="119px" height="118px" viewBox="0 0 119 118" version="1.1" xmlns="http://www.w3.org/2000/svg" xmlns:xlink="http://www.w3.org/1999/xlink">
    <!-- Generator: Sketch 58 (84663) - https://sketch.com -->
    <title>付款</title>
    <desc>Created with Sketch.</desc>
    <g id="页面1" stroke="none" stroke-width="1" fill="none" fill-rule="evenodd">
        <g id="订单详情-待收货" transform="translate(-579.000000, -161.000000)" fill="#FFFFFF" fill-rule="nonzero">
            <g id="发货" transform="translate(591.000000, 178.000000)">
                <path d="M25.5638696,55.0620893 L0,55.0620893 L0,49.2223896 L25.5638696,49.2223896 L25.5638696,55.0620893 L25.5638696,55.0620893 Z M35.8568263,39.0026011 L10.2930624,39.0026011 L10.2930624,33.1631106 L35.8568263,33.1631106 L35.8568263,39.0026011 Z M43.2440986,22.9434268 L17.6806519,22.9434268 L17.6806519,17.104041 L43.2444158,17.104041 L43.2444158,22.9434268 L43.2440986,22.9434268 Z M16.4403124,70.3443115 L2.36544108,70.3443115 L2.36544108,76.2063025 L16.4386209,76.2063025 C17.6633133,80.894493 21.7538327,84.5294445 26.9041171,84.9582124 C32.7446654,85.4440168 37.9384018,81.6431886 39.3519151,76.2063025 L58.6231659,76.2063025 L58.6231659,76.1816042 L63.806753,76.1816042 C65.0231991,80.8819345 69.1193218,84.5288166 74.2790154,84.9582124 C80.1283387,85.4447494 85.3288414,81.6313627 86.7329454,76.1816042 L97,76.1816042 L97,43.6857682 L77.9584847,17.5615888 L58.6228488,17.5615888 L58.6228488,7.01758183 C58.6228488,3.14778654 55.4306557,0 51.5077069,0 L17.1526724,0 L17.1526724,5.86199107 L51.5079183,5.86199107 C52.1884557,5.86199107 52.7013168,6.35909813 52.7013168,7.01716322 L52.7013168,70.3439975 L39.3538181,70.3439975 C38.1291256,65.655807 34.0391349,62.0208556 28.8883219,61.5920876 C23.0477736,61.1065972 17.8538257,64.907844 16.4403124,70.3443115 Z M69.3492688,73.2753593 C69.3492688,70.0378842 72.0005842,67.4136822 75.2711178,67.4136822 C78.5416515,67.4136822 81.1926498,70.0378842 81.1926498,73.2753593 C81.1926498,76.5128345 78.5412286,79.1372458 75.2711178,79.1372458 C72.0010071,79.1372458 69.3492688,76.5131484 69.3492688,73.2753593 L69.3492688,73.2753593 Z M58.7022466,70.3197178 L58.7022466,23.4231613 L74.9296333,23.4231613 L91.077728,45.5793798 L91.077728,70.3197178 L86.7221617,70.3197178 C85.4897514,65.6429346 81.4051525,62.0200183 76.2634317,61.5921923 C70.4317641,61.1070158 65.244794,64.8960181 63.8214484,70.3197178 L58.7022466,70.3197178 L58.7022466,70.3197178 Z M21.9745819,73.2753593 C21.9745819,70.0378842 24.6258973,67.4136822 27.8961138,67.4136822 C31.1663302,67.4136822 33.8179628,70.0378842 33.8179628,73.2753593 C33.8179628,76.5128345 31.1666474,79.1372458 27.8961138,79.1372458 C24.6255801,79.1372458 21.9742647,76.5131484 21.9745819,73.2753593 L21.9745819,73.2753593 Z M85.9914059,45.3293611 L72.9015536,45.3293611 L72.9015536,32.7509827 L67.0022234,32.7509827 L67.0022234,51.1709446 L85.9914059,51.1691655 L85.9914059,45.3293611 L85.9914059,45.3293611 Z" id="形状"></path>
            </g>
        </g>
    </g>
</svg>