<?xml version="1.0" encoding="UTF-8"?>
<svg width="40px" height="40px" viewBox="0 0 40 40" version="1.1" xmlns="http://www.w3.org/2000/svg" xmlns:xlink="http://www.w3.org/1999/xlink">
    <!-- Generator: Sketch 58 (84663) - https://sketch.com -->
    <title>Group 5</title>
    <desc>Created with Sketch.</desc>
    <defs>
        <linearGradient x1="50%" y1="0%" x2="50%" y2="100%" id="linearGradient-1">
            <stop stop-color="#FF1701" offset="0%"></stop>
            <stop stop-color="#CC2000" offset="100%"></stop>
        </linearGradient>
    </defs>
    <g id="体温计" stroke="none" stroke-width="1" fill="none" fill-rule="evenodd">
        <g id="Tab-1健康商城/1-4购物车" transform="translate(-314.000000, -661.000000)">
            <g id="Group-6" transform="translate(16.000000, 154.000000)">
                <g id="Group-5" transform="translate(298.000000, 507.000000)">
                    <circle id="Oval" fill="#152D44" cx="20" cy="20" r="20"></circle>
                    <path d="M33.3772337,15.7216925 L29.6849404,9.44480802 L29.6849406,9.44480827 C29.1564395,8.54915915 28.1938038,7.99966281 27.1538571,8.00000016 L13.6315344,8.00000016 L13.6315346,8.00000016 C12.5921551,8.00181592 11.6305108,8.55074586 11.1004511,9.44480827 L7.40815788,15.7216927 L7.40815808,15.7216924 C6.76121106,16.8147695 6.89306796,18.2003462 7.73457651,19.1517672 L18.1960584,31.0098884 L18.1960583,31.0098882 C19.2717424,32.2245378 21.1284148,32.3371924 22.3430621,31.2615107 C22.4319431,31.1827985 22.5159709,31.0987707 22.5946822,31.0098906 L33.0507969,19.1517694 L33.0507969,19.1517695 C33.8923054,18.2003391 34.0241623,16.8147671 33.3772153,15.7216947 L33.3772337,15.7216925 Z M27.0789508,18.5952444 L21.2569174,24.4226449 L21.2569175,24.4226449 C20.7765242,24.8923835 20.0088929,24.8923835 19.5284997,24.4226449 L13.7064663,18.5952444 L13.7064663,18.5952444 C13.2291761,18.1179543 13.2291761,17.3441167 13.7064663,16.8668266 C14.1837565,16.3895364 14.957594,16.3895364 15.4348841,16.8668266 L20.379348,21.8273217 L25.3344994,16.8668266 L25.3344994,16.8668266 C25.8117896,16.3895364 26.5856271,16.3895364 27.0629173,16.8668266 C27.5402074,17.3441167 27.5402074,18.1179543 27.0629173,18.5952444 L27.0789508,18.5952444 Z" id="Shape" fill="url(#linearGradient-1)" fill-rule="nonzero"></path>
                </g>
            </g>
        </g>
    </g>
</svg>