<?xml version="1.0" encoding="UTF-8"?>
<svg width="242px" height="49px" viewBox="0 0 242 49" version="1.1" xmlns="http://www.w3.org/2000/svg" xmlns:xlink="http://www.w3.org/1999/xlink">
    <!-- Generator: Sketch 58 (84663) - https://sketch.com -->
    <title>Group 3</title>
    <desc>Created with Sketch.</desc>
    <defs>
        <filter x="-28.4%" y="-31.8%" width="156.8%" height="163.6%" filterUnits="objectBoundingBox" id="filter-1">
            <feOffset dx="0" dy="2" in="SourceAlpha" result="shadowOffsetOuter1"></feOffset>
            <feGaussianBlur stdDeviation="1.5" in="shadowOffsetOuter1" result="shadowBlurOuter1"></feGaussianBlur>
            <feColorMatrix values="0 0 0 0 0   0 0 0 0 0   0 0 0 0 0  0 0 0 0.478338068 0" type="matrix" in="shadowBlurOuter1" result="shadowMatrixOuter1"></feColorMatrix>
            <feMerge>
                <feMergeNode in="shadowMatrixOuter1"></feMergeNode>
                <feMergeNode in="SourceGraphic"></feMergeNode>
            </feMerge>
        </filter>
        <linearGradient x1="50%" y1="0%" x2="50%" y2="100%" id="linearGradient-2">
            <stop stop-color="#FF1701" offset="0%"></stop>
            <stop stop-color="#CC2000" offset="100%"></stop>
        </linearGradient>
        <path d="M35.8659495,10.4707464 L30.8454241,1.95917902 L30.8454242,1.95917935 C30.126805,0.744663161 28.8178794,-0.000463677527 27.4038317,-6.23264983e-06 L9.01711094,-6.23264983e-06 L9.01711116,-6.23264983e-06 C7.60383474,0.00245597397 6.29625712,0.746814778 5.57551863,1.95917935 L0.554993181,10.4707467 L0.554993448,10.4707463 C-0.324680446,11.9529783 -0.145390535,13.8318451 0.998834692,15.1219889 L15.2236355,31.2018128 L15.2236354,31.2018126 C16.6862764,32.8488992 19.2108513,33.0016608 20.8624448,31.5430171 C20.983299,31.436282 21.0975542,31.3223388 21.2045804,31.2018158 L35.4220833,15.1219919 L35.4220832,15.1219919 C36.5663084,13.8318355 36.7455984,11.952975 35.8659245,10.4707494 L35.8659495,10.4707464 Z M27.3019793,14.367334 L19.3855803,22.2693931 L19.3855803,22.2693931 C18.7323747,22.906367 17.6886027,22.906367 17.0353971,22.2693932 L9.1189981,14.3673341 L9.1189981,14.3673341 C8.4700119,13.7201201 8.4700119,12.6707826 9.11899812,12.0235686 C9.76798432,11.3763547 10.8201952,11.3763547 11.4691814,12.0235686 L18.192322,18.7500886 L24.9299947,12.0235686 L24.9299947,12.0235686 C25.578981,11.3763547 26.6311918,11.3763547 27.280178,12.0235686 C27.9291642,12.6707826 27.9291642,13.7201201 27.280178,14.3673341 L27.3019793,14.367334 Z" id="path-3"></path>
        <filter x="-1.4%" y="-1.5%" width="102.7%" height="103.1%" filterUnits="objectBoundingBox" id="filter-4">
            <feOffset dx="0" dy="1" in="SourceAlpha" result="shadowOffsetInner1"></feOffset>
            <feComposite in="shadowOffsetInner1" in2="SourceAlpha" operator="arithmetic" k2="-1" k3="1" result="shadowInnerInner1"></feComposite>
            <feColorMatrix values="0 0 0 0 1   0 0 0 0 1   0 0 0 0 1  0 0 0 0.5 0" type="matrix" in="shadowInnerInner1"></feColorMatrix>
        </filter>
    </defs>
    <g id="体温计" stroke="none" stroke-width="1" fill="none" fill-rule="evenodd">
        <g id="Tab-1健康商城/1-6升级购买会员" transform="translate(-383.000000, -373.000000)">
            <g id="Group-8" transform="translate(30.000000, 341.000000)">
                <g id="Group-3" transform="translate(353.000000, 32.000000)">
                    <path d="M17.0746269,0 L235.121433,0 C238.54118,-6.28197364e-16 241.313433,2.77225283 241.313433,6.192 L241.313433,42.808 C241.313433,46.2277472 238.54118,49 235.121433,49 L15.5054328,49 C12.0856857,49 9.31343284,46.2277472 9.31343284,42.808 L9.313,9.187 L5.68434189e-14,0 L17.0746269,0 Z" id="Combined-Shape" fill="#152D44"></path>
                    <g id="钻石" filter="url(#filter-1)" transform="translate(25.000000, 8.000000)" fill-rule="nonzero">
                        <g id="Shape">
                            <use fill="url(#linearGradient-2)" xlink:href="#path-3"></use>
                            <use fill="black" fill-opacity="1" filter="url(#filter-4)" xlink:href="#path-3"></use>
                        </g>
                    </g>
                    <text id="购物专享价" font-family="PingFangSC-Regular, PingFang SC" font-size="32" font-weight="normal" fill="#EBC981">
                        <tspan x="69" y="39">购物专享价</tspan>
                    </text>
                </g>
            </g>
        </g>
    </g>
</svg>