<?xml version="1.0" encoding="UTF-8"?>
<svg width="39px" height="35px" viewBox="0 0 39 35" version="1.1" xmlns="http://www.w3.org/2000/svg" xmlns:xlink="http://www.w3.org/1999/xlink">
    <!-- Generator: Sketch 58 (84663) - https://sketch.com -->
    <title>钻石</title>
    <desc>Created with Sketch.</desc>
    <defs>
        <linearGradient x1="50%" y1="0%" x2="50%" y2="100%" id="linearGradient-1">
            <stop stop-color="#FF1701" offset="0%"></stop>
            <stop stop-color="#CC2000" offset="100%"></stop>
        </linearGradient>
    </defs>
    <g id="体温计" stroke="none" stroke-width="1" fill="none" fill-rule="evenodd">
        <g id="Tab-1健康商城/1-2商品详情" transform="translate(-49.000000, -1125.000000)" fill="url(#linearGradient-1)" fill-rule="nonzero">
            <g id="Group-6" transform="translate(30.000000, 908.000000)">
                <g id="升级会员" transform="translate(0.000000, 203.000000)">
                    <g id="钻石" transform="translate(19.000000, 14.000000)">
                        <path d="M38.1248146,11.1606793 L32.7880926,2.08827221 L32.7880928,2.08827257 C32.0242144,0.793730114 30.6328516,-0.000494229923 29.1297461,-6.64332831e-06 L9.58501553,-6.64332831e-06 L9.58501576,-6.64332831e-06 C8.0827301,0.00261780172 6.69280024,0.796023503 5.92666908,2.08827257 L0.589947079,11.1606796 L0.589947362,11.1606792 C-0.345129071,12.7405776 -0.154547343,14.7432457 1.06174207,16.118399 L16.1824318,33.2577462 L16.1824317,33.257746 C17.7371909,35.0133615 20.4207655,35.1761888 22.1763776,33.621433 C22.3048433,33.5076649 22.4262944,33.3862138 22.5400611,33.2577494 L37.6529933,16.1184022 L37.6529933,16.1184023 C38.8692827,14.7432355 39.0598644,12.7405741 38.124788,11.1606825 L38.1248146,11.1606793 Z M29.0214789,15.3140188 L20.606499,23.7367562 L20.6064991,23.7367562 C19.9121541,24.4157013 18.8026445,24.4157013 18.1082995,23.7367563 L9.69331962,15.3140189 L9.69331962,15.3140189 C9.00345977,14.624159 9.00345977,13.5056791 9.69331963,12.8158193 C10.3831795,12.1259594 11.5016594,12.1259594 12.1915192,12.8158193 L19.3380884,19.9855595 L26.500105,12.8158193 L26.500105,12.8158193 C27.1899648,12.1259594 28.3084447,12.1259594 28.9983046,12.8158193 C29.6881644,13.5056791 29.6881644,14.624159 28.9983046,15.3140189 L29.0214789,15.3140188 Z" id="Shape"></path>
                    </g>
                </g>
            </g>
        </g>
    </g>
</svg>