<?xml version="1.0" encoding="UTF-8"?>
<svg width="183px" height="215px" viewBox="0 0 183 215" version="1.1" xmlns="http://www.w3.org/2000/svg" xmlns:xlink="http://www.w3.org/1999/xlink">
    <!-- Generator: Sketch 58 (84663) - https://sketch.com -->
    <title>Group 2</title>
    <desc>Created with Sketch.</desc>
    <defs>
        <linearGradient x1="57.1328691%" y1="130.748236%" x2="57.1328691%" y2="2.77555756e-15%" id="linearGradient-1">
            <stop stop-color="#9D0E00" offset="0%"></stop>
            <stop stop-color="#DB1B23" offset="100%"></stop>
        </linearGradient>
    </defs>
    <g id="Page-1" stroke="none" stroke-width="1" fill="none" fill-rule="evenodd">
        <g id="Tab-3团队/长按海报识别后下载-iOS" transform="translate(-283.000000, -334.000000)">
            <g id="Group-3" transform="translate(135.000000, 334.000000)">
                <g id="Group-2" transform="translate(148.500000, 0.000000)">
                    <g id="Group" transform="translate(0.000000, 55.186666)">
                        <rect id="Rectangle" fill="url(#linearGradient-1)" x="0" y="8" width="182" height="59" rx="4"></rect>
                        <path d="M32.21875,22.40625 C32.9479167,22.40625 33.6302083,22.28125 34.265625,22.03125 C34.9010417,21.78125 35.453125,21.4479167 35.921875,21.03125 C36.390625,20.6145833 36.7604167,20.1197917 37.03125,19.546875 C37.3020833,18.9739583 37.4375,18.3645833 37.4375,17.71875 C37.4375,17.0729167 37.3020833,16.4583333 37.03125,15.875 C36.7604167,15.2916667 36.390625,14.7916667 35.921875,14.375 C35.453125,13.9583333 34.9010417,13.625 34.265625,13.375 C33.6302083,13.125 32.9479167,13 32.21875,13 C31.4895833,13 30.8125,13.125 30.1875,13.375 C29.5625,13.625 29.0104167,13.9583333 28.53125,14.375 C28.0520833,14.7916667 27.6770833,15.2916667 27.40625,15.875 C27.1354167,16.4583333 27,17.0729167 27,17.71875 C27,18.3645833 27.1354167,18.9739583 27.40625,19.546875 C27.6770833,20.1197917 28.0520833,20.6145833 28.53125,21.03125 C29.0104167,21.4479167 29.5625,21.78125 30.1875,22.03125 C30.8125,22.28125 31.4895833,22.40625 32.21875,22.40625 Z M37.125,60.875 L37.125,28.21875 L34.21875,28.21875 L27.40625,31.78125 L27.40625,60.875 L37.125,60.875 Z M80.09375,61.8125 C82.3645833,61.8125 84.5416667,61.5677083 86.625,61.078125 C88.7083333,60.5885417 90.6510417,59.8854167 92.453125,58.96875 C94.2552083,58.0520833 95.8854167,56.9375 97.34375,55.625 C98.8020833,54.3125 100.052083,52.8229167 101.09375,51.15625 C102.135417,49.4895833 102.9375,47.6614583 103.5,45.671875 C104.0625,43.6822917 104.34375,41.5625 104.34375,39.3125 C104.34375,36.1458333 103.71875,33.234375 102.46875,30.578125 C101.21875,27.921875 99.5052083,25.6354167 97.328125,23.71875 C95.1510417,21.8020833 92.5885417,20.3072917 89.640625,19.234375 C86.6927083,18.1614583 83.5104167,17.625 80.09375,17.625 C76.6770833,17.625 73.4895833,18.15625 70.53125,19.21875 C67.5729167,20.28125 65.0104167,21.7708333 62.84375,23.6875 C60.6770833,25.6041667 58.9739583,27.9010417 57.734375,30.578125 C56.4947917,33.2552083 55.875,36.1979167 55.875,39.40625 C55.875,42.6770833 56.4947917,45.6822917 57.734375,48.421875 C58.9739583,51.1614583 60.6770833,53.5260417 62.84375,55.515625 C65.0104167,57.5052083 67.5729167,59.0520833 70.53125,60.15625 C73.4895833,61.2604167 76.6770833,61.8125 80.09375,61.8125 Z M80.09375,58.25 C78.0104167,58.25 76.1770833,57.7760417 74.59375,56.828125 C73.0104167,55.8802083 71.6875,54.5729167 70.625,52.90625 C69.5625,51.2395833 68.7604167,49.2552083 68.21875,46.953125 C67.6770833,44.6510417 67.40625,42.1354167 67.40625,39.40625 C67.40625,36.71875 67.6770833,34.2604167 68.21875,32.03125 C68.7604167,29.8020833 69.5625,27.8854167 70.625,26.28125 C71.6875,24.6770833 73.0104167,23.4270833 74.59375,22.53125 C76.1770833,21.6354167 78.0104167,21.1875 80.09375,21.1875 C82.15625,21.1875 83.9791667,21.6354167 85.5625,22.53125 C87.1458333,23.4270833 88.46875,24.6770833 89.53125,26.28125 C90.59375,27.8854167 91.4010417,29.8020833 91.953125,32.03125 C92.5052083,34.2604167 92.78125,36.71875 92.78125,39.40625 C92.78125,42.1354167 92.5052083,44.6510417 91.953125,46.953125 C91.4010417,49.2552083 90.59375,51.2395833 89.53125,52.90625 C88.46875,54.5729167 87.1458333,55.8802083 85.5625,56.828125 C83.9791667,57.7760417 82.15625,58.25 80.09375,58.25 Z M138.71875,61.5 C141.427083,61.5 143.817708,61.1875 145.890625,60.5625 C147.963542,59.9375 149.697917,59.078125 151.09375,57.984375 C152.489583,56.890625 153.541667,55.6041667 154.25,54.125 C154.958333,52.6458333 155.3125,51.0416667 155.3125,49.3125 C155.3125,47.8541667 154.979167,46.5416667 154.3125,45.375 C153.645833,44.2083333 152.765625,43.1458333 151.671875,42.1875 C150.578125,41.2291667 149.333333,40.3489583 147.9375,39.546875 C146.541667,38.7447917 145.119792,37.9791667 143.671875,37.25 C142.223958,36.5208333 140.802083,35.796875 139.40625,35.078125 C138.010417,34.359375 136.765625,33.6041667 135.671875,32.8125 C134.578125,32.0208333 133.697917,31.1666667 133.03125,30.25 C132.364583,29.3333333 132.03125,28.3125 132.03125,27.1875 C132.03125,26.5416667 132.15625,25.8802083 132.40625,25.203125 C132.65625,24.5260417 133.0625,23.9114583 133.625,23.359375 C134.1875,22.8072917 134.932292,22.3541667 135.859375,22 C136.786458,21.6458333 137.927083,21.46875 139.28125,21.46875 C140.71875,21.46875 141.958333,21.671875 143,22.078125 C144.041667,22.484375 144.927083,23.03125 145.65625,23.71875 C146.385417,24.40625 147,25.2083333 147.5,26.125 C148,27.0416667 148.4375,28 148.8125,29 L148.8125,29 L155.34375,29 C154.864583,27.4166667 154.177083,25.9322917 153.28125,24.546875 C152.385417,23.1614583 151.276042,21.953125 149.953125,20.921875 C148.630208,19.890625 147.104167,19.0833333 145.375,18.5 C143.645833,17.9166667 141.71875,17.625 139.59375,17.625 C137.010417,17.625 134.708333,17.921875 132.6875,18.515625 C130.666667,19.109375 128.958333,19.9322917 127.5625,20.984375 C126.166667,22.0364583 125.098958,23.2760417 124.359375,24.703125 C123.619792,26.1302083 123.25,27.6875 123.25,29.375 C123.25,30.9166667 123.572917,32.2864583 124.21875,33.484375 C124.864583,34.6822917 125.71875,35.7552083 126.78125,36.703125 C127.84375,37.6510417 129.052083,38.5104167 130.40625,39.28125 C131.760417,40.0520833 133.145833,40.7864583 134.5625,41.484375 C135.979167,42.1822917 137.364583,42.875 138.71875,43.5625 C140.072917,44.25 141.28125,44.9947917 142.34375,45.796875 C143.40625,46.5989583 144.260417,47.4895833 144.90625,48.46875 C145.552083,49.4479167 145.875,50.5625 145.875,51.8125 C145.875,52.8125 145.666667,53.6510417 145.25,54.328125 C144.833333,55.0052083 144.28125,55.5572917 143.59375,55.984375 C142.90625,56.4114583 142.130208,56.71875 141.265625,56.90625 C140.401042,57.09375 139.53125,57.1875 138.65625,57.1875 C137.322917,57.1875 136.151042,56.9947917 135.140625,56.609375 C134.130208,56.2239583 133.255208,55.6927083 132.515625,55.015625 C131.776042,54.3385417 131.166667,53.5416667 130.6875,52.625 C130.208333,51.7083333 129.84375,50.71875 129.59375,49.65625 L129.59375,49.65625 L122.375,49.65625 C122.666667,51.3854167 123.208333,52.9739583 124,54.421875 C124.791667,55.8697917 125.854167,57.1145833 127.1875,58.15625 C128.520833,59.1979167 130.140625,60.015625 132.046875,60.609375 C133.953125,61.203125 136.177083,61.5 138.71875,61.5 Z" id="iOS" fill="#FFFBF3" fill-rule="nonzero"></path>
                    </g>
                    <path d="M170.889578,0.555387128 C172.369351,1.55421579 172.757697,3.5624125 171.758869,5.04089157 L161.538204,20.1723227 C162.255564,22.3054592 162.644449,24.588158 162.644449,26.9600095 L162.644449,56.0438715 L144.10941,56.0438715 L144.109026,45.973 L66.744026,160.508 L144.109255,160.508518 L144.109255,126.82684 L162.644294,126.82684 L162.644294,183.926187 C162.644294,195.694465 153.070751,205.268292 141.302447,205.268292 L56.7818724,205.268292 C50.6059783,205.268292 45.0345208,202.631678 41.1339735,198.424912 L31.2529551,213.053024 C30.6520269,213.944077 29.6470159,214.476079 28.5722691,214.476079 C27.9506902,214.476079 27.3212119,214.297733 26.7674506,213.922315 C25.2874118,212.923486 24.8993313,210.915289 25.89816,209.43681 L37.2781087,192.590053 C36.0969289,189.941197 35.4400257,187.009119 35.4400257,183.926445 L35.4400257,126.82684 L53.9750645,126.82684 L53.9750645,160.508518 L58.947026,160.508 L142.896026,36.227 L53.9752192,36.2277093 L53.9752192,56.0438715 L35.4401804,56.0438715 L35.4401804,26.9600095 C35.4401804,15.1917317 45.0137236,5.61816278 56.7820271,5.61816278 L141.302602,5.61816278 C148.094905,5.61816278 154.156094,8.80735735 158.067433,13.7670248 L166.404074,1.42467775 C167.402902,-0.0521951415 169.411099,-0.448190446 170.889578,0.555387128 Z M156.182371,133.289021 L150.571952,133.289021 L150.571952,166.970699 L62.380026,166.97 L44.8917281,192.861376 C47.6095454,196.468863 51.9283642,198.80557 56.7822591,198.80557 L141.302834,198.80557 C149.506901,198.80557 156.182371,192.1301 156.182371,183.926033 L156.182371,133.289021 Z M100.042686,169.889333 C107.211141,169.889333 113.042018,175.721546 113.042018,182.890001 C113.042018,190.058456 107.211163,195.889333 100.042686,195.889333 C92.8742314,195.889333 87.0420181,190.058478 87.0420181,182.890001 C87.0420181,175.721546 92.8742314,169.889333 100.042686,169.889333 Z M100.04273,174.889333 C95.6305145,174.889333 92.0420181,178.47783 92.0420181,182.890045 C92.0420181,187.300837 95.6305145,190.889333 100.04273,190.889333 C104.453522,190.889333 108.042018,187.300837 108.042018,182.890045 C108.042257,178.478063 104.453522,174.889333 100.04273,174.889333 Z M47.5130898,133.289021 L41.9027223,133.289021 L41.9027223,183.926033 C41.9027223,184.493182 41.9346243,185.053026 41.9967279,185.603864 L54.583026,166.97 L47.5130898,166.970699 L47.5130898,133.289021 Z M141.302344,12.0803953 L56.7817693,12.0803953 C48.5777019,12.0803953 41.9022325,18.7558648 41.9022325,26.9599322 L41.9022325,49.5813038 L47.5126515,49.5813038 L47.5126515,29.7651417 L147.260026,29.765 L154.182893,19.5169584 C151.60578,15.0746305 146.796883,12.0803953 141.302344,12.0803953 Z M156.181026,28.101 L150.571026,36.406 L150.571256,49.5813038 L156.181881,49.5813038 L156.181026,28.101 Z" id="Combined-Shape" fill="#DFAF4A" fill-rule="nonzero"></path>
                </g>
            </g>
        </g>
    </g>
</svg>