<?xml version="1.0" encoding="UTF-8"?>
<svg width="134px" height="32px" viewBox="0 0 134 32" version="1.1" xmlns="http://www.w3.org/2000/svg" xmlns:xlink="http://www.w3.org/1999/xlink">
    <!-- Generator: Sketch 58 (84663) - https://sketch.com -->
    <title>label</title>
    <desc>Created with Sketch.</desc>
    <defs>
        <linearGradient x1="98.688239%" y1="48.688239%" x2="1.31176098%" y2="48.688239%" id="linearGradient-1">
            <stop stop-color="#FAB51E" offset="0%"></stop>
            <stop stop-color="#FECF32" offset="100%"></stop>
        </linearGradient>
        <path d="M11,0 L130,0 C132.209139,-4.05812251e-16 134,1.790861 134,4 L134,28 C134,30.209139 132.209139,32 130,32 L10,32 C7.790861,32 6,30.209139 6,28 L6,6 L0,0 L11,0 Z" id="path-2"></path>
        <linearGradient x1="50%" y1="0%" x2="50%" y2="100%" id="linearGradient-3">
            <stop stop-color="#FF1701" offset="0%"></stop>
            <stop stop-color="#CC2000" offset="100%"></stop>
        </linearGradient>
    </defs>
    <g id="体温计" stroke="none" stroke-width="1" fill="none" fill-rule="evenodd">
        <g id="Tab-1健康商城/1-1首页" transform="translate(-137.000000, -1601.000000)">
            <g id="Group-4" transform="translate(0.000000, 969.000000)">
                <g id="Group-5" transform="translate(10.000000, 74.000000)">
                    <g id="Group-11" transform="translate(20.000000, 386.000000)">
                        <g id="Group-9" transform="translate(0.000000, 165.000000)">
                            <g id="label/钻石会员" transform="translate(107.000000, 7.000000)">
                                <g id="Group-5">
                                    <g>
                                        <g id="Combined-Shape">
                                            <use fill="url(#linearGradient-1)" xlink:href="#path-2"></use>
                                            <use fill="#152D44" xlink:href="#path-2"></use>
                                        </g>
                                        <g id="plus-price" transform="translate(16.000000, 2.000000)" fill-rule="nonzero">
                                            <path d="M41.3,4.52 L41.3,13.02 L38.2,13.02 L38.2,23.12 L40.3,23.12 L40.3,22.38 L45.46,22.38 L45.46,23.12 L47.58,23.12 L47.58,13.02 L43.42,13.02 L43.42,9.98 L48.34,9.98 L48.34,7.94 L43.42,7.94 L43.42,4.52 L41.3,4.52 Z M40.3,20.34 L40.3,15.04 L45.46,15.04 L45.46,20.34 L40.3,20.34 Z M32.24,4.62 C31.72,6.9 30.84,9.06 29.58,11.08 L31.28,12.16 C31.48,11.84 31.68,11.5 31.88,11.16 L31.88,12.54 L32.94,12.54 L32.94,14.42 L30.36,14.42 L30.36,16.34 L32.94,16.34 L32.94,20.06 C32.94,20.42 32.66,20.68 32.1,20.88 L32.96,22.66 C34.8,22.18 36.44,21.58 37.84,20.86 L37.5,19.04 C36.66,19.52 35.82,19.92 34.98,20.24 L34.98,16.34 L37.56,16.34 L37.56,14.42 L34.98,14.42 L34.98,12.54 L36.84,12.54 L36.84,10.68 L32.14,10.68 C32.48,10.04 32.8,9.34 33.1,8.6 L37.2,8.6 L37.2,6.62 L33.8,6.62 C33.96,6.12 34.1,5.6 34.24,5.04 L32.24,4.62 Z M50.16,5.5 L50.16,7.54 L56.36,7.54 C54.94,11.06 52.7,13.96 49.62,16.24 L50.9,18.34 C52.24,17.3 53.44,16.14 54.52,14.86 L54.52,22.88 L56.68,22.88 L56.68,21.94 L64.36,21.94 L64.36,22.88 L66.5,22.88 L66.5,12.32 L56.36,12.32 C57.28,10.86 58.04,9.26 58.64,7.54 L67.88,7.54 L67.88,5.5 L50.16,5.5 Z M56.68,19.92 L56.68,14.34 L64.36,14.34 L64.36,19.92 L56.68,19.92 Z M78.24,4.52 C75.92,7.12 73.02,9.28 69.52,11 L70.64,13.04 C71.84,12.38 72.98,11.68 74.04,10.94 L74.04,12.46 L84.02,12.46 L84.02,11.02 C85.04,11.74 86.12,12.42 87.28,13.02 L88.42,10.98 C85.14,9.42 82.26,7.26 79.76,4.52 L78.24,4.52 Z M74.64,10.5 C76.32,9.26 77.76,7.88 79,6.4 C80.26,7.92 81.7,9.28 83.34,10.5 L74.64,10.5 Z M70.9,14.5 L70.9,16.54 L75.42,16.54 C74.72,17.82 73.88,19.06 72.88,20.24 C72.66,20.48 72.3,20.68 71.8,20.8 L72.36,22.62 L73.7993585,22.5282548 C77.8042105,22.258892 81.1863158,21.9094737 83.96,21.48 C84.34,22 84.7,22.54 85.04,23.06 L86.78,21.84 C85.78,20.4 84.38,18.68 82.56,16.72 L80.94,17.74 C81.6,18.5 82.22,19.24 82.8,19.96 C80.24,20.26 77.6,20.48 74.9,20.64 C76.02,19.48 77,18.1 77.84,16.54 L87.14,16.54 L87.14,14.5 L70.9,14.5 Z M105.96,11.7 L92.06,11.7 L92.06,19.64 L94.14,19.64 L94.14,13.6 L103.88,13.6 L103.88,19.32 L105.96,19.32 L105.96,11.7 Z M93.24,5.12 L93.24,10.58 L104.78,10.58 L104.78,5.12 L93.24,5.12 Z M102.76,8.78 L95.26,8.78 L95.26,6.96 L102.76,6.96 L102.76,8.78 Z M98.12,14.54 C97.98,16.9 97.46,18.58 96.56,19.54 C95.52,20.54 93.4,21.12 90.2,21.28 L91.02,23.18 C94.94,22.82 97.38,22 98.38,20.76 C99.34,19.78 99.96,17.78 100.24,14.74 L98.12,14.54 Z M100.64,19.02 C103.22,19.7 105.58,20.5 107.74,21.46 L106.62,23.2 C104.34,22.08 102,21.2 99.6,20.56 L100.64,19.02 Z" id="钻石会员" fill="#EBC981"></path>
                                            <g id="钻石" transform="translate(0.000000, 3.000000)" fill="url(#linearGradient-3)">
                                                <path d="M23.1059482,6.76404805 L19.8715713,1.26561952 L19.8715714,1.26561974 C19.4086148,0.481048554 18.5653646,-0.000299533286 17.6543916,-4.02625958e-06 L5.80910032,-4.02625958e-06 L5.80910046,-4.02625958e-06 C4.89862431,0.00158654649 4.05624257,0.482438487 3.59192065,1.26561974 L0.357543684,6.76404827 L0.357543856,6.76404798 C-0.209169134,7.72156218 -0.0936650561,8.93530044 0.643480042,9.76872665 L9.80753443,20.1562098 L9.80753434,20.1562097 C10.7498127,21.2202191 12.3762215,21.3189023 13.4402288,20.3766261 C13.5180869,20.3076757 13.5916936,20.234069 13.6606431,20.1562118 L22.819996,9.7687286 L22.8199959,9.76872865 C23.557141,8.93529422 23.6726451,7.72156007 23.1059321,6.76404997 L23.1059482,6.76404805 Z M17.5887751,9.28122352 L12.4887873,14.3859129 L12.4887873,14.3859128 C12.0679722,14.7973947 11.3955421,14.7973947 10.974727,14.3859129 L5.87473916,9.28122355 L5.87473916,9.28122355 C5.45664228,8.86312667 5.45664228,8.18526008 5.87473917,7.76716319 C6.29283605,7.34906631 6.97070265,7.34906631 7.38879953,7.7671632 L11.7200536,12.1124603 L16.0606697,7.7671632 L16.0606697,7.7671632 C16.4787666,7.34906632 17.1566332,7.34906632 17.5747301,7.76716319 C17.9928269,8.18526007 17.9928269,8.86312667 17.5747301,9.28122355 L17.5887751,9.28122352 Z" id="Shape"></path>
                                            </g>
                                        </g>
                                    </g>
                                </g>
                            </g>
                        </g>
                    </g>
                </g>
            </g>
        </g>
    </g>
</svg>