<?xml version="1.0" encoding="UTF-8"?>
<svg width="177px" height="177px" viewBox="0 0 177 177" version="1.1" xmlns="http://www.w3.org/2000/svg" xmlns:xlink="http://www.w3.org/1999/xlink">
    <!-- Generator: Sketch 63.1 (92452) - https://sketch.com -->
    <title>loading</title>
    <desc>Created with Sketch.</desc>
    <g id="页面-1" stroke="none" stroke-width="1" fill="none" fill-rule="evenodd">
        <g id="loading" transform="translate(0.695312, 0.500000)" fill-rule="nonzero">
            <path d="M0,88 C0,136.601058 39.398942,176 88,176 C136.601058,176 176,136.601058 176,88 C176,39.398942 136.601058,0 88,0 C39.398942,0 0,39.398942 0,88 Z" id="路径" fill="#C8C8C8" opacity="0.5"></path>
            <g id="编组" transform="translate(35.000000, 35.000000)">
                <path d="M52.9763393,88.2919271 C72.4816888,88.2919271 88.2938988,72.4797171 88.2938988,52.9743676 C88.2938988,33.469018 72.4816888,17.656808 52.9763393,17.656808 C33.4709898,17.656808 17.6587798,33.469018 17.6587798,52.9743676 C17.6587798,62.341327 21.3790353,71.3247904 28.0024759,77.948231 C34.6259165,84.5716715 43.6093798,88.2919271 52.9763393,88.2919271 L52.9763393,88.2919271 Z M52.9763393,105.950707 C23.7178943,105.950707 0,82.2328125 0,52.9743676 C0,23.7159226 23.7178943,0 52.9763393,0 C82.2347842,0 105.950707,23.7178943 105.950707,52.9743676 C105.950707,82.2308408 82.2328125,105.950707 52.9763393,105.950707 L52.9763393,105.950707 Z" id="形状" fill="#4ED87E"></path>
                <path d="M46.6514885,32.6587798 C66.1163694,32.6587798 81.8941224,48.4700521 81.8941224,67.9743676 C81.8941224,87.478683 66.1183412,103.291927 46.6514885,103.291927 C41.062302,103.21963 38.1165431,105.826252 37.8142117,111.111793 C37.5118804,116.397334 40.4576393,119.676972 46.6514885,120.950707 C75.8468382,120.950707 99.5134677,97.2328125 99.5134677,67.9743676 C99.5134677,38.7159226 75.8488099,15 46.6514885,15 C40.0882692,15.3943452 36.8060024,18.3401042 36.8046875,23.8372768 C36.8033734,29.3344494 40.0856403,32.2749504 46.6514885,32.6587798 Z" id="路径" fill="#F6F6F6" transform="translate(68.159078, 67.975353) rotate(-315.000000) translate(-68.159078, -67.975353) "></path>
            </g>
        </g>
    </g>
</svg>