<?xml version="1.0" encoding="UTF-8"?>
<svg width="98px" height="98px" viewBox="0 0 98 98" version="1.1" xmlns="http://www.w3.org/2000/svg" xmlns:xlink="http://www.w3.org/1999/xlink">
    <!-- Generator: Sketch 58 (84663) - https://sketch.com -->
    <title>icon/TotheTop</title>
    <desc>Created with Sketch.</desc>
    <g id="体温计" stroke="none" stroke-width="1" fill="none" fill-rule="evenodd">
        <g id="Tab-1健康商城/1-2商品详情" transform="translate(-623.000000, -3259.000000)">
            <g id="icon/TotheTop" transform="translate(624.000000, 3260.000000)">
                <circle id="Oval" stroke="#D2D6D5" stroke-width="1" fill-opacity="0.8" fill="#FFFFFF" fill-rule="evenodd" stroke-linecap="square" cx="48" cy="48" r="48"></circle>
                <text id="顶部" font-family="PingFangSC-Regular, PingFang SC" font-size="22" font-weight="normal" fill="#9B9B9B">
                    <tspan x="26" y="79">顶部</tspan>
                </text>
                <g id="顶部" stroke-width="1" fill-rule="evenodd" transform="translate(24.000000, 11.000000)">
                    <rect id="Rectangle-path" fill="#000000" fill-rule="nonzero" opacity="0" x="0" y="0" width="48" height="48"></rect>
                    <path d="M37.3323209,24.5849214 L25.1865341,12.4305873 C24.8880258,12.1306276 24.4979976,11.9866147 24.1095014,11.9895982 C24.0570085,11.9850826 24.0120145,11.9596022 23.9595216,11.9596022 C23.7405187,11.9596022 23.5365139,12.0105631 23.3490391,12.094584 C23.1600322,12.1665905 22.9800564,12.2760919 22.8270125,12.4290552 L10.6709851,24.5754872 C10.084451,25.1604892 10.0829996,26.1099584 10.669453,26.6964924 C10.9619137,26.9904852 11.345975,27.1374816 11.7314877,27.1374816 C12.1154684,27.1374816 12.4979976,26.9904852 12.7919903,26.6994759 L22.4594812,17.0356135 L22.4594812,43.4596425 C22.4594812,44.2891278 23.1314877,44.9596022 23.9595216,44.9596022 C24.7875554,44.9596022 25.4595619,44.2891278 25.4595619,43.4596425 L25.4595619,16.962075 L35.2053487,26.6998791 C35.4978901,26.9938718 35.8848542,27.1424003 36.2688348,27.1424003 C36.6528155,27.1424003 37.0338127,26.9969359 37.326354,26.7059266 C37.9157909,26.122376 37.9173229,25.1713748 37.3323209,24.5849214 Z M40.5001209,9 L7.50012094,9 C6.67208709,9 6.00008062,8.32799353 6.00008062,7.49995969 C6.00008062,6.67192584 6.67208709,6 7.50012094,6 L40.5001209,6 C41.3296062,6 42.0000806,6.67200647 42.0000806,7.50004031 C42.0000806,8.32807416 41.3296062,9 40.5001209,9 Z" id="Shape" fill="#4A4A4A" fill-rule="nonzero"></path>
                </g>
            </g>
        </g>
    </g>
</svg>