<?xml version="1.0" encoding="UTF-8"?>
<svg width="132px" height="36px" viewBox="0 0 132 36" version="1.1" xmlns="http://www.w3.org/2000/svg" xmlns:xlink="http://www.w3.org/1999/xlink">
    <!-- Generator: Sketch 58 (84663) - https://sketch.com -->
    <title>Group 5</title>
    <desc>Created with Sketch.</desc>
    <defs>
        <linearGradient x1="98.688239%" y1="48.688239%" x2="1.31176098%" y2="48.688239%" id="linearGradient-1">
            <stop stop-color="#FAB51E" offset="0%"></stop>
            <stop stop-color="#FECF32" offset="100%"></stop>
        </linearGradient>
        <path d="M120,0 C122.209139,4.05812251e-16 124,1.790861 124,4 L124,4 L124,10.514 L130.571068,17.0857864 C131.311009,17.8257272 131.349953,19.0012114 130.687901,19.7869988 L130.571068,19.9142136 L124,26.485 L124,32 C124,34.1421954 122.316032,35.8910789 120.19964,35.9951047 L120,36 L4,36 C1.790861,36 0,34.209139 0,32 L0,32 L0,4 C0,1.790861 1.790861,-4.05812251e-16 4,0 L4,0 Z" id="path-2"></path>
        <linearGradient x1="50%" y1="0%" x2="50%" y2="100%" id="linearGradient-3">
            <stop stop-color="#FF1701" offset="0%"></stop>
            <stop stop-color="#CC2000" offset="100%"></stop>
        </linearGradient>
    </defs>
    <g id="Page-1" stroke="none" stroke-width="1" fill="none" fill-rule="evenodd">
        <g id="Tab-1健康商城/1-1首页-优选简版" transform="translate(-60.000000, -975.000000)">
            <g id="Group-4" transform="translate(30.000000, 505.000000)">
                <g id="Group-8" transform="translate(30.000000, 405.000000)">
                    <g id="Group-5" transform="translate(0.000000, 65.000000)">
                        <g id="Combined-Shape">
                            <use fill="url(#linearGradient-1)" xlink:href="#path-2"></use>
                            <use fill="#152D44" xlink:href="#path-2"></use>
                        </g>
                        <g id="plus-price" transform="translate(8.000000, 4.000000)">
                            <text id="钻石会员" font-family="PingFangSC-Semibold, PingFang SC" font-size="20" font-weight="500" fill="#EBC981">
                                <tspan x="28" y="21">钻石会员</tspan>
                            </text>
                            <g id="钻石" transform="translate(0.000000, 3.000000)" fill="url(#linearGradient-3)" fill-rule="nonzero">
                                <path d="M23.1059482,6.76404805 L19.8715713,1.26561952 L19.8715714,1.26561974 C19.4086148,0.481048554 18.5653646,-0.000299533286 17.6543916,-4.02625958e-06 L5.80910032,-4.02625958e-06 L5.80910046,-4.02625958e-06 C4.89862431,0.00158654649 4.05624257,0.482438487 3.59192065,1.26561974 L0.357543684,6.76404827 L0.357543856,6.76404798 C-0.209169134,7.72156218 -0.0936650561,8.93530044 0.643480042,9.76872665 L9.80753443,20.1562098 L9.80753434,20.1562097 C10.7498127,21.2202191 12.3762215,21.3189023 13.4402288,20.3766261 C13.5180869,20.3076757 13.5916936,20.234069 13.6606431,20.1562118 L22.819996,9.7687286 L22.8199959,9.76872865 C23.557141,8.93529422 23.6726451,7.72156007 23.1059321,6.76404997 L23.1059482,6.76404805 Z M17.5887751,9.28122352 L12.4887873,14.3859129 L12.4887873,14.3859128 C12.0679722,14.7973947 11.3955421,14.7973947 10.974727,14.3859129 L5.87473916,9.28122355 L5.87473916,9.28122355 C5.45664228,8.86312667 5.45664228,8.18526008 5.87473917,7.76716319 C6.29283605,7.34906631 6.97070265,7.34906631 7.38879953,7.7671632 L11.7200536,12.1124603 L16.0606697,7.7671632 L16.0606697,7.7671632 C16.4787666,7.34906632 17.1566332,7.34906632 17.5747301,7.76716319 C17.9928269,8.18526007 17.9928269,8.86312667 17.5747301,9.28122355 L17.5887751,9.28122352 Z" id="Shape"></path>
                            </g>
                        </g>
                    </g>
                </g>
            </g>
        </g>
    </g>
</svg>